<svg width="78" height="32" viewBox="0 0 78 32" fill="none" xmlns="http://www.w3.org/2000/svg">
<g clip-path="url(#clip0_48_44)">
<path d="M15.0856 16.4891C16.0836 14.8944 17.6181 13.5052 19.161 12.4239H12.0073C12.6913 7.10811 15.828 6.63988 19.9309 6.69082C20.7673 6.71563 21.6027 6.74177 22.4887 6.74177L23.3246 0.866975H23.2484C22.1339 0.841282 21.0455 0.79034 19.9309 0.79034C13.3217 0.738954 7.0668 1.50221 5.26831 9.77041C4.05277 15.3418 2.20422 24.6031 1.14062 30.7344H9.65158L11.629 18.5569C11.6306 18.486 11.6482 18.4163 11.6804 18.3531H14.0805C14.2615 17.9475 14.4629 17.5513 14.6838 17.166C14.7503 17.045 14.8212 16.9276 14.8911 16.8085C14.9536 16.7004 15.0183 16.5927 15.0856 16.4891Z" fill="#FF5F00"/>
<path d="M25.7016 12.4307C20.591 12.4307 15.8994 16.5836 15.2225 21.7062C14.5456 26.8288 18.14 30.9813 23.2497 30.9813C28.3595 30.9813 33.0515 26.8288 33.7288 21.7062C34.4062 16.5836 30.8123 12.4307 25.7016 12.4307ZM28.6815 21.7062C28.3741 24.0345 26.2416 25.9216 23.9191 25.9216C21.5965 25.9216 19.9628 24.0345 20.2702 21.7062C20.5777 19.3779 22.7102 17.4904 25.0332 17.4904C27.3561 17.4904 28.9894 19.3779 28.6815 21.7062Z" fill="#FF5F00"/>
<path d="M62.6807 10.627L63.1631 6.04395H59.4806H56.611L55.8242 10.627H59.4806H62.6807Z" fill="#FF5F00"/>
<path d="M52.8074 30.9811H60.6544L62.0001 18.171H64.2283L63.6697 23.4115C63.1616 28.2727 66.4631 31.133 70.9346 30.9306L74.159 30.8287L74.7438 25.4881H72.7375C71.4165 25.4881 70.1727 25.0571 70.4012 23.0828L70.9089 18.1458H75.4295L76.1148 12.5252H71.3133L71.7705 8.14551H65.3207L64.8635 12.5252H55.5756L52.7578 30.8801" fill="#FF5F00"/>
<path d="M43.1383 28.1185C42.857 28.1956 42.5894 28.2696 42.332 28.34L43.8213 30.9793H51.053L48.1559 25.8447C46.9386 26.6075 45.3576 27.3593 43.226 28.0893L43.1383 28.1185Z" fill="#FF5F00"/>
<path d="M41.8204 14.608L40.6089 12.46H33.375L36.63 18.2289C38.0179 16.7843 39.7969 15.5444 41.8204 14.608Z" fill="#FF5F00"/>
<path d="M33.6289 30.1919C33.6289 30.1919 33.8915 25.4254 35.9625 21.9808C37.7012 18.3524 42.2971 15.3144 47.5127 14.4413C47.5127 14.4413 51.8947 13.4247 53.2524 12.6353C53.2524 12.6353 54.7288 11.6784 54.0622 13.9031C54.0622 13.9031 53.1762 16.0568 50.451 17.4549C49.8082 17.7783 49.3303 17.8505 49.4321 18.4653C49.6146 19.0904 50.6574 18.6155 50.8001 18.5437C51.0481 18.3386 53.465 17.6759 51.8548 19.9856C50.2353 22.3777 49.2523 24.5483 42.9651 26.7008C38.7736 27.849 37.1067 28.4948 34.6774 30.6955C33.4618 31.5585 33.6289 30.1919 33.6289 30.1919Z" fill="#FF5F00"/>
</g>
<defs>
<clipPath id="clip0_48_44">
<rect width="77.7429" height="30.4668" fill="white" transform="translate(0 0.766602)"/>
</clipPath>
</defs>
</svg>
