<svg width="164" height="64" viewBox="0 0 164 64" fill="none" xmlns="http://www.w3.org/2000/svg">
<path d="M31.8266 33.0262C33.932 29.6762 37.169 26.7581 40.4238 24.4866H25.333C26.7758 13.3201 33.3928 12.3365 42.0479 12.4435C43.8122 12.4956 45.5746 12.5505 47.4435 12.5505L49.2069 0.209663H49.0462C46.695 0.155692 44.399 0.0486795 42.0479 0.0486795C28.1056 -0.0592635 14.9108 1.54406 11.1168 18.9127C8.55265 30.6161 4.65309 50.071 2.40942 62.9506H20.3635L24.5349 37.37C24.5382 37.221 24.5753 37.0747 24.6433 36.9419H29.7063C30.0882 36.0899 30.513 35.2575 30.9791 34.4481C31.1192 34.194 31.2687 33.9474 31.4164 33.6971C31.5482 33.4701 31.6846 33.2439 31.8266 33.0262Z" fill="white"/>
<path d="M54.2262 24.5024C43.4452 24.5024 33.5482 33.2263 32.1204 43.9871C30.6925 54.7479 38.2748 63.4708 49.0539 63.4708C59.8331 63.4708 69.731 54.7479 71.1598 43.9871C72.5886 33.2263 65.0073 24.5024 54.2262 24.5024ZM60.5124 43.9871C59.8639 48.878 55.3654 52.8421 50.4659 52.8421C45.5665 52.8421 42.1201 48.878 42.7687 43.9871C43.4172 39.0962 47.9157 35.1311 52.8161 35.1311C57.7165 35.1311 61.1619 39.0962 60.5124 43.9871Z" fill="white"/>
<path d="M132.224 20.7143L133.242 11.0869H125.473H119.42L117.76 20.7143H125.473H132.224Z" fill="white"/>
<path d="M111.4 63.4683H127.953L130.792 36.5588H135.493L134.314 47.5672C133.242 57.7789 140.207 63.7875 149.64 63.3622L156.442 63.1482L157.675 51.9295H153.443C150.656 51.9295 148.032 51.0241 148.515 46.8767L149.585 36.5058H159.122L160.567 24.6991H150.439L151.403 15.4988H137.797L136.833 24.6991H117.24L111.295 63.2561" fill="white"/>
<path d="M90.9997 57.4567C90.4063 57.6186 89.8419 57.774 89.299 57.9219L92.4406 63.4661H107.696L101.584 52.6802C99.0165 54.2826 95.6814 55.8617 91.1847 57.3952L90.9997 57.4567Z" fill="white"/>
<path d="M88.2291 29.0752L85.6733 24.563H70.4133L77.2798 36.6814C80.2075 33.6469 83.9604 31.0424 88.2291 29.0752Z" fill="white"/>
<path d="M70.9404 61.8127C70.9404 61.8127 71.4946 51.8001 75.8632 44.5642C79.5311 36.9421 89.2262 30.5604 100.229 28.7263C100.229 28.7263 109.473 26.5907 112.337 24.9325C112.337 24.9325 115.451 22.9225 114.045 27.5957C114.045 27.5957 112.176 32.12 106.427 35.0568C105.071 35.7361 104.063 35.8878 104.278 37.1794C104.663 38.4924 106.863 37.4948 107.163 37.3441C107.687 36.9132 112.785 35.5211 109.388 40.373C105.972 45.3979 103.898 49.9576 90.6354 54.4791C81.7934 56.8911 78.277 58.2478 73.1523 62.8708C70.5881 64.6834 70.9404 61.8127 70.9404 61.8127Z" fill="white"/>
</svg>
